<svg width="68" height="68" viewBox="0 0 68 68" fill="none" xmlns="http://www.w3.org/2000/svg">
<path d="M34 38.9881C36.7526 38.9881 38.9881 36.7526 38.9881 34C38.9881 31.2474 36.7526 29.0119 34 29.0119C31.246 29.0119 29.0119 31.2474 29.0119 34C29.0119 36.7526 31.246 38.9881 34 38.9881ZM44.7695 24.3794C46.2726 24.3794 47.4867 23.1625 47.4867 21.6637C47.4867 20.162 46.2726 18.9479 44.7695 18.9479C43.2707 18.9479 42.0552 20.162 42.0552 21.6637C42.0552 23.1625 43.2707 24.3794 44.7695 24.3794ZM43.9762 34C43.9762 39.5094 39.5094 43.9762 34 43.9762C28.4906 43.9762 24.0238 39.5094 24.0238 34C24.0238 32.8412 24.2321 31.7305 24.5962 30.6935H19.7738V44.2156C19.7738 46.5502 21.6849 48.4613 24.021 48.4613H43.2721C45.6067 48.4613 47.5178 46.5502 47.5178 44.2156V26.4435H40.5025C42.6261 28.2738 43.9762 30.9768 43.9762 34ZM34 0C15.2221 0 0 15.2221 0 34C0 52.7779 15.2221 68 34 68C52.7779 68 68 52.7779 68 34C68 15.2221 52.7779 0 34 0ZM52.1532 47.787C52.1532 50.9022 49.6046 53.4537 46.4865 53.4537H20.8037C17.6871 53.4537 15.1371 50.9022 15.1371 47.787V22.1014C15.1371 18.9833 17.6871 16.4347 20.8037 16.4347H46.4893C49.6046 16.4347 52.156 18.9833 52.156 22.1014V47.787H52.1532Z" fill="#E4F87A"/>
</svg>
