<svg width="28" height="28" viewBox="0 0 28 28" fill="none" xmlns="http://www.w3.org/2000/svg">
<path d="M22.2112 16.5422C22.2112 18.0211 22.2112 19.5001 22.2112 20.9791C22.2112 21.6102 22.2112 22.2413 22.2112 22.8723C22.2112 23.2374 22.2297 23.6112 22.1814 23.9739C22.1979 23.8544 22.2144 23.735 22.231 23.6156C22.1924 23.8773 22.1225 24.1305 22.0211 24.3748C22.067 24.2651 22.1128 24.1554 22.1587 24.0457C22.0563 24.2832 21.9271 24.5052 21.7713 24.7115C21.8433 24.6169 21.9154 24.5223 21.9874 24.4278C21.8299 24.6307 21.6507 24.8123 21.45 24.9725C21.5451 24.8985 21.6402 24.8245 21.7353 24.7505C21.5204 24.9174 21.2878 25.0551 21.0378 25.1628C21.1529 25.1148 21.268 25.0668 21.383 25.0187C21.1255 25.1256 20.8583 25.1974 20.582 25.2342C20.7056 25.2183 20.8293 25.2023 20.9529 25.1864C20.6261 25.2253 20.2907 25.2105 19.962 25.2105C19.3571 25.2105 18.7523 25.2105 18.1474 25.2105C16.2632 25.2105 14.379 25.2105 12.4949 25.2105C10.6134 25.2105 8.7319 25.2105 6.85042 25.2105C6.24894 25.2105 5.64748 25.2105 5.046 25.2105C4.70729 25.2105 4.36206 25.2256 4.0257 25.1808C4.14509 25.1973 4.26445 25.2138 4.38381 25.2304C4.12216 25.1918 3.86913 25.1219 3.62483 25.0205C3.73452 25.0663 3.84418 25.1122 3.95384 25.158C3.71639 25.0557 3.49456 24.9264 3.28828 24.7705C3.38282 24.8426 3.47739 24.9147 3.57193 24.9867C3.36909 24.8292 3.18754 24.6499 3.02734 24.4491C3.10134 24.5443 3.17533 24.6394 3.24933 24.7346C3.0824 24.5196 2.94482 24.2869 2.83711 24.0369C2.88514 24.1519 2.93314 24.267 2.98117 24.3821C2.87433 24.1246 2.80259 23.8573 2.76575 23.5809C2.78168 23.7045 2.79764 23.8282 2.81356 23.9519C2.77461 23.6249 2.78939 23.2895 2.78939 22.9606C2.78939 22.3556 2.78939 21.7506 2.78939 21.1455C2.78939 19.2607 2.78939 17.3759 2.78939 15.4911C2.78939 13.609 2.78939 11.7269 2.78939 9.84482C2.78939 9.24314 2.78939 8.6415 2.78939 8.03982C2.78939 7.70099 2.7743 7.35566 2.81914 7.01919C2.80262 7.13862 2.78611 7.25802 2.76956 7.37745C2.80814 7.11571 2.87798 6.86256 2.97937 6.61822C2.93351 6.72791 2.88768 6.83764 2.84182 6.94734C2.94414 6.70981 3.07339 6.48787 3.22925 6.28156C3.15721 6.37613 3.08513 6.47073 3.01309 6.5653C3.17059 6.3624 3.34979 6.18076 3.55055 6.02054C3.45542 6.09456 3.36029 6.16858 3.26519 6.2426C3.48015 6.07565 3.71277 5.93799 3.96271 5.83025C3.84765 5.87829 3.7326 5.92631 3.61754 5.97435C3.87501 5.86747 4.14224 5.79572 4.41855 5.75886C4.29491 5.77479 4.17125 5.79076 4.04761 5.80669C4.58461 5.74268 5.1451 5.78251 5.68414 5.78251C6.65929 5.78251 7.63445 5.78251 8.6096 5.78251C9.52984 5.78251 10.4501 5.78251 11.3703 5.78251C12.1299 5.78251 12.77 5.16103 12.775 4.39739C12.7801 3.64132 12.1501 2.99219 11.3904 2.99219C9.90788 2.99219 8.42535 2.99219 6.94282 2.99219C6.18693 2.99219 5.43104 2.99219 4.67515 2.99219C4.28931 2.99219 3.91313 3.02253 3.52979 3.09001C3.08699 3.16794 2.6489 3.35243 2.25735 3.5669C1.87243 3.77774 1.51187 4.06663 1.21226 4.3867C0.399884 5.25467 0 6.38196 0 7.56172C0 7.98505 0 8.40837 0 8.83172C0 10.552 0 12.2724 0 13.9927C0 15.9756 0 17.9585 0 19.9414C0 21.1041 0 22.2668 0 23.4295C0 23.7377 0.0366573 24.0378 0.0775907 24.3449C0.137581 24.7949 0.317304 25.2317 0.517323 25.6348C0.712757 26.0286 0.999694 26.3929 1.3068 26.7042C2.16077 27.5697 3.34768 28.0008 4.54984 28.0008C5.71215 28.0008 6.8745 28.0008 8.03681 28.0008C10.0191 28.0008 12.0013 28.0008 13.9836 28.0008C15.7034 28.0008 17.4231 28.0008 19.1429 28.0008C19.5661 28.0008 19.9893 28.0008 20.4125 28.0008C20.5724 28.0008 20.7311 27.9985 20.8908 27.9817C21.1674 27.9526 21.4457 27.9186 21.7153 27.8477C21.9938 27.7745 22.2641 27.653 22.525 27.5363C22.9278 27.3562 23.2939 27.0725 23.6171 26.7776C24.2602 26.191 24.7386 25.3313 24.9011 24.4771C24.9731 24.0989 25.0006 23.7273 25.0006 23.3459C25.0006 22.5936 25.0006 21.8412 25.0006 21.0889C25.0006 19.5805 25.0006 18.0722 25.0006 16.5639C25.0006 16.5633 25.0006 16.5628 25.0006 16.5622C25.0006 15.8024 24.3794 15.1621 23.616 15.157C22.8601 15.152 22.2112 15.7822 22.2112 16.5422Z" fill="#0B36BC"/>
<path d="M15.5058 2.79033C16.662 2.79138 17.818 2.79243 18.9741 2.79352C20.915 2.79532 22.8558 2.79708 24.7967 2.79888C25.3956 2.79944 25.9945 2.79997 26.5934 2.80052C27.3531 2.80121 27.9932 2.17851 27.9983 1.4154C28.0033 0.658805 27.3733 0.0108804 26.6135 0.0101985C25.4574 0.00914459 24.3013 0.0080907 23.1452 0.00700581C21.2044 0.005208 19.2635 0.0034102 17.3227 0.00164339C16.7238 0.00108544 16.1249 0.000558501 15.526 5.59564e-07C14.7663 -0.000681368 14.1262 0.622012 14.1211 1.38512C14.1161 2.14169 14.7461 2.78961 15.5058 2.79033Z" fill="#0B36BC"/>
<path d="M27.9885 12.4958C27.9896 11.3394 27.9906 10.183 27.9917 9.02658C27.9935 7.08523 27.9953 5.14384 27.9971 3.20246C27.9977 2.60338 27.9982 2.00431 27.9987 1.40524C27.9995 0.645351 27.377 0.00508227 26.6141 2.98014e-05C25.8578 -0.00499167 25.2102 0.625234 25.2095 1.38515C25.2084 2.54157 25.2073 3.69797 25.2063 4.85439C25.2045 6.79575 25.2027 8.73714 25.2009 10.6785C25.2003 11.2776 25.1998 11.8767 25.1992 12.4757C25.1985 13.2356 25.821 13.8759 26.5838 13.8809C27.3401 13.886 27.9878 13.2557 27.9885 12.4958Z" fill="#0B36BC"/>
<path d="M11.9122 18.0434C12.3893 17.5667 12.8663 17.0899 13.3434 16.6132C14.5038 15.4535 15.6642 14.2939 16.8246 13.1342C18.2622 11.6976 19.6997 10.2609 21.1373 8.82431C22.446 7.51652 23.7546 6.20874 25.0632 4.90096C25.8368 4.12793 26.6103 3.3549 27.3839 2.58188C27.4531 2.51263 27.5225 2.44341 27.5917 2.37417C28.1286 1.83761 28.1195 0.932974 27.5812 0.401256C27.0385 -0.134771 26.1467 -0.125751 25.6088 0.411826C25.1317 0.888555 24.6547 1.36532 24.1776 1.84205C23.0172 3.00169 21.8568 4.16131 20.6964 5.32096C19.2588 6.75763 17.8212 8.19427 16.3836 9.6309C15.075 10.9387 13.7663 12.2465 12.4577 13.5543C11.6842 14.3273 10.9106 15.1003 10.1371 15.8734C10.0678 15.9426 9.99851 16.0118 9.92922 16.081C9.39231 16.6176 9.40145 17.5222 9.93978 18.054C10.4825 18.59 11.3743 18.581 11.9122 18.0434Z" fill="#1440C9"/>
</svg>
